<svg xmlns="http://www.w3.org/2000/svg" version="1.0" width="201.000000pt" height="194.000000pt" viewBox="0 0 201.000000 194.000000" preserveAspectRatio="xMidYMid meet">

<g transform="translate(0.000000,194.000000) scale(0.100000,-0.100000)" fill="#f5c53a" stroke="none">
<path d="M281 1848 c-28 -14 -54 -37 -72 -67 l-29 -45 0 -388 c0 -435 -1 -430 70 -490 l42 -37 -31 -15 c-17 -9 -38 -28 -48 -42 -20 -31 -142 -496 -149 -569 -6 -59 17 -103 68 -135 32 -19 52 -20 854 -20 l821 0 41 30 c29 21 45 41 54 71 11 40 8 58 -56 313 -38 149 -78 286 -89 305 -11 19 -37 41 -58 50 l-38 17 29 18 c17 9 42 38 57 64 l28 47 3 362 c2 232 -1 376 -7 401 -16 59 -51 105 -101 130 l-44 22 -651 0 c-647 0 -650 0 -694 -22z m1359 -125 c20 -26 21 -33 18 -391 l-3 -364 -24 -19 c-22 -18 -48 -19 -657 -19 -615 0 -635 1 -653 19 -11 11 -23 35 -26 53 -3 18 -5 185 -3 371 l3 339 24 19 c22 18 48 19 661 19 l639 0 21 -27z m20 -1035 c19 -49 131 -502 126 -515 -4 -11 -147 -13 -801 -13 -703 0 -796 2 -801 15 -7 17 113 502 129 523 7 9 154 12 673 12 l664 0 10 -22z" fill="#f5c53a"/>
<path d="M373 1700 c-50 -30 -55 -65 -51 -373 3 -296 6 -309 64 -335 18 -9 184 -12 590 -12 627 0 612 -2 640 65 21 51 20 574 -1 615 -32 63 -3 60 -635 60 -553 0 -576 -1 -607 -20z m1165 -132 l-3 -43 -560 0 -560 0 -3 43 -3 42 566 0 566 0 -3 -42z" fill="#f5c53a"/>
<path d="M390 570 l0 -50 85 0 c98 0 116 18 23 22 l-63 3 -3 38 c-3 29 -7 37 -23 37 -16 0 -19 -7 -19 -50z" fill="#f5c53a"/>
<path d="M640 570 l0 -50 90 0 c102 0 124 17 28 22 l-63 3 -3 38 c-3 32 -7 37 -28 37 -22 0 -24 -4 -24 -50z" fill="#f5c53a"/>
<path d="M900 570 l0 -50 85 0 c50 0 85 4 85 10 0 6 -27 10 -60 10 l-60 0 0 40 c0 36 -2 40 -25 40 -23 0 -25 -3 -25 -50z" fill="#f5c53a"/>
<path d="M1140 570 l0 -50 90 0 c102 0 124 17 28 22 l-63 3 -3 38 c-3 32 -7 37 -28 37 -22 0 -24 -4 -24 -50z" fill="#f5c53a"/>
<path d="M1400 570 l0 -50 85 0 c50 0 85 4 85 10 0 6 -27 10 -60 10 l-60 0 0 40 c0 36 -2 40 -25 40 -23 0 -25 -3 -25 -50z" fill="#f5c53a"/>
<path d="M1160 430 l0 -50 95 0 c57 0 95 4 95 10 0 6 -30 10 -70 10 l-70 0 0 40 c0 36 -2 40 -25 40 -23 0 -25 -3 -25 -50z" fill="#f5c53a"/>
<path d="M1450 430 l0 -50 95 0 c57 0 95 4 95 10 0 6 -30 10 -70 10 l-70 0 0 40 c0 36 -2 40 -25 40 -23 0 -25 -3 -25 -50z" fill="#f5c53a"/>
<path d="M320 420 l0 -50 95 0 c78 0 95 3 95 15 0 12 -14 15 -70 15 l-70 0 0 35 c0 31 -3 35 -25 35 -23 0 -25 -3 -25 -50z" fill="#f5c53a"/>
<path d="M610 420 l0 -50 95 0 c78 0 95 3 95 15 0 12 -14 15 -70 15 l-70 0 0 35 c0 31 -3 35 -25 35 -23 0 -25 -3 -25 -50z" fill="#f5c53a"/>
<path d="M890 420 l0 -50 95 0 c76 0 95 3 95 15 0 11 -16 15 -67 17 l-68 3 -3 33 c-3 26 -7 32 -28 32 -22 0 -24 -4 -24 -50z" fill="#f5c53a"/>
<path d="M250 280 l0 -50 105 0 c87 0 105 3 105 15 0 12 -15 15 -75 15 l-75 0 0 35 c0 32 -2 35 -30 35 -29 0 -30 -1 -30 -50z" fill="#f5c53a"/>
<path d="M570 280 l0 -50 410 0 c358 0 410 2 410 15 0 13 -49 15 -385 15 l-385 0 0 35 c0 31 -3 35 -25 35 -23 0 -25 -3 -25 -50z" fill="#f5c53a"/>
<path d="M1500 280 l0 -50 105 0 c87 0 105 3 105 15 0 12 -16 15 -80 15 l-80 0 0 35 c0 31 -3 35 -25 35 -23 0 -25 -3 -25 -50z" fill="#f5c53a"/>
</g>
</svg>
